<svg width="242" height="242" viewBox="0 0 242 242" fill="none" xmlns="http://www.w3.org/2000/svg">
<rect width="242" height="242" rx="121" fill="#222222"/>
<path d="M176 58.5V58.5002C176 58.5094 176 58.5473 175.97 58.6329C175.937 58.7261 175.861 58.8957 175.689 59.1392C175.328 59.6495 174.635 60.3561 173.423 61.1846C170.979 62.856 167.115 64.5601 161.891 66.0713C151.509 69.0743 136.873 71 120.5 71C104.127 71 89.4913 69.0743 79.1094 66.0713C73.8849 64.5601 70.0208 62.856 67.5769 61.1846C66.3654 60.3561 65.672 59.6495 65.311 59.1392C65.1387 58.8957 65.0627 58.7261 65.03 58.6329C65 58.5474 65 58.5094 65 58.5002V58.5V58.4998C65 58.4906 65 58.4526 65.03 58.3671C65.0627 58.2739 65.1387 58.1043 65.311 57.8608C65.672 57.3505 66.3654 56.6439 67.5769 55.8154C70.0208 54.144 73.8849 52.4399 79.1094 50.9287C89.4913 47.9257 104.127 46 120.5 46C136.873 46 151.509 47.9257 161.891 50.9287C167.115 52.4399 170.979 54.144 173.423 55.8154C174.635 56.6439 175.328 57.3505 175.689 57.8608C175.861 58.1043 175.937 58.2739 175.97 58.3671C176 58.4527 176 58.4906 176 58.4998V58.5Z" stroke="#F8F4EE" stroke-width="10"/>
<path d="M177 180.5C177 180.502 177 180.504 177 180.508C176.999 180.512 176.999 180.517 176.997 180.524C176.995 180.537 176.989 180.565 176.973 180.609C176.942 180.697 176.867 180.864 176.691 181.108C176.323 181.619 175.615 182.33 174.376 183.163C171.88 184.843 167.938 186.552 162.619 188.065C152.048 191.073 137.155 193 120.5 193C103.845 193 88.9519 191.073 78.3814 188.065C73.0619 186.552 69.1205 184.843 66.6239 183.163C65.3854 182.33 64.6768 181.619 64.3088 181.108C64.1335 180.864 64.058 180.697 64.0266 180.609C64.011 180.565 64.0049 180.537 64.0025 180.524C64.0002 180.51 64 180.504 64 180.5C64 180.496 64.0002 180.49 64.0025 180.476C64.0049 180.463 64.011 180.435 64.0266 180.391C64.058 180.303 64.1335 180.136 64.3088 179.892C64.6768 179.381 65.3854 178.67 66.6239 177.837C69.1205 176.157 73.0619 174.448 78.3814 172.935C88.9519 169.927 103.845 168 120.5 168C137.155 168 152.048 169.927 162.619 172.935C167.938 174.448 171.88 176.157 174.376 177.837C175.615 178.67 176.323 179.381 176.691 179.892C176.867 180.136 176.942 180.303 176.973 180.391C176.989 180.435 176.995 180.463 176.997 180.476C177 180.49 177 180.496 177 180.5Z" stroke="#F8F4EE" stroke-width="10"/>
<path d="M64 180L117 121" stroke="#F8F4EE" stroke-width="10" stroke-linecap="round"/>
<path d="M126 121L176 60" stroke="#F8F4EE" stroke-width="10" stroke-linecap="round"/>
<path d="M117 120L65 60" stroke="#F8F4EE" stroke-width="10" stroke-linecap="round"/>
<path d="M177 180L126 121" stroke="#F8F4EE" stroke-width="10" stroke-linecap="round"/>
<path d="M120.5 101.165L197.063 121L120.5 140.835L43.9371 121L120.5 101.165Z" stroke="#F8F4EE" stroke-width="10"/>
</svg>